<?xml version="1.0" encoding="utf-8"?>
<!-- Generator: Adobe Illustrator 25.4.0, SVG Export Plug-In . SVG Version: 6.00 Build 0)  -->
<svg version="1.1" id="_xF91C_迹_x5F_1" xmlns="http://www.w3.org/2000/svg" xmlns:xlink="http://www.w3.org/1999/xlink" x="0px"
	 y="0px" viewBox="0 0 35.74 30.27" style="enable-background:new 0 0 35.74 30.27;" xml:space="preserve">
<style type="text/css">
	.st0{fill:#FFFFFF;}
	.st1{fill:#55826B;}
</style>
<g>
	<g>
		<path d="M11.86,30.27C5.32,30.27,0,24.23,0,16.81C0,9.39,5.32,3.34,11.86,3.34c6.54,0,11.86,6.04,11.86,13.46
			C23.72,24.23,18.4,30.27,11.86,30.27z M11.86,4.84C6.15,4.84,1.5,10.21,1.5,16.81c0,6.6,4.65,11.96,10.36,11.96
			c5.71,0,10.36-5.37,10.36-11.96C22.22,10.21,17.57,4.84,11.86,4.84z"/>
	</g>
	<g>
		<path d="M22.28,30.27c-2.12,0-4.14-0.42-6.02-1.25c-0.38-0.17-0.55-0.61-0.38-0.99c0.17-0.38,0.61-0.55,0.99-0.38
			c1.69,0.74,3.51,1.12,5.42,1.12c6.6,0,11.96-4.65,11.96-10.36c0-0.41,0.34-0.75,0.75-0.75c0.41,0,0.75,0.34,0.75,0.75
			C35.74,24.95,29.7,30.27,22.28,30.27z"/>
	</g>
	<g>
		<path d="M22.28,27.77c-1.2,0-2.38-0.16-3.5-0.49c-0.4-0.11-0.63-0.53-0.51-0.93c0.11-0.4,0.53-0.63,0.93-0.51
			c0.99,0.29,2.03,0.43,3.09,0.43c5.22,0,9.46-3.53,9.46-7.86c0-0.41,0.34-0.75,0.75-0.75c0.41,0,0.75,0.34,0.75,0.75
			C33.24,23.57,28.33,27.77,22.28,27.77z"/>
	</g>
	<g>
		<path d="M34.99,19.16H22.88c-0.41,0-0.75-0.34-0.75-0.75c0-0.41,0.34-0.75,0.75-0.75h12.11c0.41,0,0.75,0.34,0.75,0.75
			C35.74,18.83,35.41,19.16,34.99,19.16z"/>
	</g>
	<g>
		<path d="M24.94,22.53c-0.41,0-0.75-0.34-0.75-0.75v-0.77c0-0.41,0.34-0.75,0.75-0.75c0.41,0,0.75,0.34,0.75,0.75v0.77
			C25.69,22.2,25.36,22.53,24.94,22.53z"/>
	</g>
	<g>
		<path d="M27.73,23.05c-0.41,0-0.75-0.34-0.75-0.75v-0.77c0-0.41,0.34-0.75,0.75-0.75c0.41,0,0.75,0.34,0.75,0.75v0.77
			C28.48,22.71,28.14,23.05,27.73,23.05z"/>
	</g>
	<g>
		<path d="M23.18,25.48c-0.41,0-0.75-0.34-0.75-0.75v-0.77c0-0.41,0.34-0.75,0.75-0.75c0.41,0,0.75,0.34,0.75,0.75v0.77
			C23.93,25.15,23.59,25.48,23.18,25.48z"/>
	</g>
	<g>
		<path d="M12.17,4.46c-0.38,0-0.7-0.29-0.74-0.67c-0.05-0.43-0.18-0.83-0.4-1.2c-0.4-0.67-0.99-1.02-1.3-1.16
			c-0.38-0.18-0.54-0.62-0.36-1c0.18-0.38,0.62-0.54,1-0.36c0.57,0.27,1.37,0.79,1.95,1.75c0.33,0.55,0.53,1.16,0.6,1.8
			c0.04,0.41-0.25,0.78-0.66,0.83C12.23,4.46,12.2,4.46,12.17,4.46z"/>
	</g>
	<g>
		<path d="M11.86,30.27c-4.73,0-8.44-5.91-8.44-13.46c0-7.55,3.71-13.46,8.44-13.46s8.44,5.91,8.44,13.46
			C20.3,24.36,16.59,30.27,11.86,30.27z M11.86,4.84c-3.83,0-6.94,5.37-6.94,11.96c0,6.6,3.11,11.96,6.94,11.96
			c3.83,0,6.94-5.37,6.94-11.96C18.8,10.21,15.69,4.84,11.86,4.84z"/>
	</g>
	<g>
		<path d="M11.86,30.27c-2.81,0-3.56-8.46-3.56-13.46c0-5,0.75-13.46,3.56-13.46c2.81,0,3.56,8.46,3.56,13.46
			C15.42,21.81,14.67,30.27,11.86,30.27z M11.83,4.84C11.16,5.11,9.8,9.46,9.8,16.81s1.36,11.7,2.09,11.97
			c0.67-0.27,2.03-4.62,2.03-11.97C13.92,9.46,12.56,5.11,11.83,4.84z"/>
	</g>
</g>
<g>
</g>
</svg>
