<?xml version="1.0" encoding="utf-8"?>
<!-- Generator: Adobe Illustrator 25.4.0, SVG Export Plug-In . SVG Version: 6.00 Build 0)  -->
<svg version="1.1" id="Layer_1" xmlns="http://www.w3.org/2000/svg" xmlns:xlink="http://www.w3.org/1999/xlink" x="0px" y="0px"
	 viewBox="0 0 62 54" style="enable-background:new 0 0 62 54;" xml:space="preserve">
<style type="text/css">
	.st0{fill:#FFFFFF;}
	.st1{fill:#4FDBC4;}
	.st2{fill:#333333;}
	.st3{fill:#343433;}
</style>
<g>
	<path class="st3" d="M38.26,39.14l-0.23-0.89c-0.58-2.26-0.59-7.09,3.52-9.14c4.5-2.25,8.86,0.96,9.05,1.09l0.67,0.5l-0.37,0.75
		c-1.26,2.53-5.74,6.54-11.73,7.54L38.26,39.14z M44.93,30.32c-0.8,0-1.65,0.16-2.48,0.58c-2.72,1.36-2.79,4.39-2.63,5.92
		c4.44-1.03,7.52-3.77,8.8-5.49C47.81,30.89,46.45,30.32,44.93,30.32z"/>
	<path class="st3" d="M27,45C15.59,45,7.23,39.64,3.22,34.62C1.14,32.03,0,28.97,0,26c0-3.22,2.13-8,8-8
		c11.87,0,16.62-2.08,24.2-10.59C36.83,2.22,41.26,0,47,0c10.36,0,15,8.04,15,16c0,2.18-0.77,5.34-1.04,6.28
		C56.76,35.88,43.11,45,27,45z M47,2c-5.18,0-9.04,1.95-13.3,6.74C25.73,17.68,20.45,20,8,20c-4.75,0-6,3.92-6,6
		c0,2.51,0.99,5.13,2.78,7.38C8.5,38.03,16.29,43,27,43c15.23,0,28.11-8.56,32.04-21.29C59.34,20.68,60,17.79,60,16
		C60,9.03,55.98,2,47,2z"/>
	<path class="st3" d="M28,54C13.85,54,1.86,43.18,0.04,37.29L0,37V27h2v9.84C3.77,42.13,15.09,52,28,52c22.79,0,32-16.94,32-24V17h2
		v11C62,35.65,52.22,54,28,54z"/>
	<path class="st3" d="M47,27c-6.62,0-12-5.38-12-12S40.38,3,47,3c6.62,0,12,5.38,12,12S53.62,27,47,27z M47,5c-5.51,0-10,4.49-10,10
		s4.49,10,10,10c5.51,0,10-4.49,10-10S52.51,5,47,5z"/>
	<path class="st3" d="M26.26,41.34c-3.99,0-8.95-1.56-12.71-3.44C8.93,35.58,4,31.25,4,26c0-1.87,0.78-5,6-5v2c-3.59,0-4,1.71-4,3
		c0,4.34,4.36,8.06,8.45,10.11c4.3,2.15,10.6,3.98,14.28,2.93C35.29,37.16,36,30.69,36,28c0-3.18-1.2-5.6-3.56-7.17
		c-1.01-0.68-3.82-2.02-8,0.06c-3.34,1.67-9.8,2.03-12.42,2.11l-0.06-2c5.19-0.15,9.51-0.86,11.58-1.89c5.11-2.56,8.7-0.81,10,0.06
		C36.46,21.11,38,24.16,38,28c0,2.46-0.63,10.65-8.73,12.96C28.37,41.22,27.35,41.34,26.26,41.34z"/>
	<path class="st3" d="M29,33c-2.76,0-5-2.24-5-5s2.24-5,5-5c2.76,0,5,2.24,5,5S31.76,33,29,33z M29,25c-1.65,0-3,1.35-3,3
		s1.35,3,3,3c1.65,0,3-1.35,3-3S30.65,25,29,25z"/>
	<path class="st3" d="M47,23v-2c3.31,0,6-2.69,6-6h2C55,19.41,51.41,23,47,23z"/>
	<path class="st3" d="M28.11,51.21c-5.64,0-9.44-2.24-9.63-2.35l1.03-1.72c0.05,0.03,4.81,2.8,11.35,1.87l0.28,1.98
		C30.08,51.14,29.07,51.21,28.11,51.21z"/>
	<path class="st3" d="M33,51l-0.02-2c0.01,0,0.99-0.04,3.7-0.95l0.63,1.9C34.31,50.95,33.19,51,33,51z"/>
</g>
</svg>
