<?xml version="1.0" encoding="utf-8"?>
<!-- Generator: Adobe Illustrator 25.4.0, SVG Export Plug-In . SVG Version: 6.00 Build 0)  -->
<svg version="1.1" id="Layer_1" xmlns="http://www.w3.org/2000/svg" xmlns:xlink="http://www.w3.org/1999/xlink" x="0px" y="0px"
	 viewBox="0 0 62.38 61.94" xml:space="preserve">
<style type="text/css">
	.st0{fill:#FFFFFF;}
	.st1{fill:#4FDBC4;}
	.st2{fill:#333333;}
	.st3{fill:#343433;}
</style>
<g>
	<path class="st2" d="M23.19,31.94c-9.4,0-17.73-4.54-22.84-12.46L0,18.94l0.35-0.54C5.46,10.48,13.79,5.94,23.19,5.94
		c9.74,0,18.88,4.77,23.84,12.46l0.35,0.54l-0.35,0.54C42.07,27.17,32.93,31.94,23.19,31.94z M2.39,18.94c4.76,7,12.31,11,20.8,11
		c8.84,0,17.13-4.2,21.8-11c-4.67-6.8-12.96-11-21.8-11C14.7,7.94,7.15,11.94,2.39,18.94z"/>
	<path class="st2" d="M61.19,28.94c-6.28,0-11.9-3.36-15.84-9.46L45,18.94l0.35-0.54c3.94-6.1,9.56-9.46,15.84-9.46v2
		c-3.9,0-6,4.12-6,8s2.1,8,6,8V28.94z M47.39,18.94c2.16,3.16,4.83,5.45,7.8,6.75c-1.32-1.88-2-4.35-2-6.75s0.68-4.86,2-6.75
		C52.22,13.5,49.55,15.78,47.39,18.94z"/>
	<path class="st2" d="M14.75,30.78l-1.11-1.66c0.06-0.04,5.56-3.81,5.56-10.17c0-2.17-0.15-3.95-0.91-5.58l1.82-0.84
		c0.96,2.08,1.09,4.32,1.09,6.42C21.19,26.39,15.01,30.6,14.75,30.78z"/>
	<path class="st2" d="M12.19,19.94c-1.65,0-3-1.35-3-3s1.35-3,3-3c1.65,0,3,1.35,3,3S13.84,19.94,12.19,19.94z M12.19,15.94
		c-0.55,0-1,0.45-1,1s0.45,1,1,1c0.55,0,1-0.45,1-1S12.74,15.94,12.19,15.94z"/>
	<polygon class="st2" points="30.19,7.94 28.19,7.94 28.19,3.89 22.77,7.76 21.61,6.13 30.19,0 	"/>
	<polygon class="st2" points="29.19,37.75 19.66,31.79 20.72,30.1 27.19,34.14 27.19,29.94 29.19,29.94 	"/>
	<rect x="21.74" y="14.44" transform="matrix(0.7071 -0.7071 0.7071 0.7071 -3.1027 23.3962)" class="st2" width="9.9" height="2"/>
	
		<rect x="20.71" y="18.94" transform="matrix(0.7071 -0.7071 0.7071 0.7071 -5.5524 26.482)" class="st2" width="16.97" height="2"/>
	
		<rect x="28.33" y="20.44" transform="matrix(0.7071 -0.7071 0.7071 0.7071 -5.0022 30.8104)" class="st2" width="12.73" height="2"/>
	<path class="st2" d="M39.19,56.94c-8.26,0-18.43-1.08-23.84-9.46L15,46.94l0.35-0.54c5.41-8.38,15.58-9.46,23.84-9.46
		c8.27,0,17.46,1.12,22.84,9.46l0.35,0.54l-0.35,0.54C56.65,55.82,47.46,56.94,39.19,56.94z M17.4,46.94c3.88,5.53,10.64,8,21.79,8
		c10.77,0,16.86-2.33,20.8-8c-3.93-5.67-10.02-8-20.8-8C28.04,38.94,21.28,41.42,17.4,46.94z"/>
	<path class="st2" d="M1.19,53.94v-2c3.82,0,5-3.67,5-5c0-1.34-1.18-5-5-5v-2c7.21,0,12.37,1.08,15.84,6.46l0.35,0.54l-0.35,0.54
		C13.56,52.86,8.39,53.94,1.19,53.94z M6.29,42.22c1.31,1.5,1.9,3.42,1.9,4.73c0,1.31-0.59,3.23-1.9,4.73
		c3.76-0.49,6.57-1.77,8.7-4.73C12.86,43.99,10.04,42.71,6.29,42.22z"/>
	<path class="st2" d="M49.05,55.93c-2.72-0.39-7.86-2.77-7.86-8.99c0-2.43,0.97-4.77,2.42-5.81l1.17,1.62
		c-0.77,0.56-1.58,2.21-1.58,4.19c0,6.06,5.89,6.97,6.14,7.01L49.05,55.93z"/>
	<path class="st2" d="M50.19,47.94c-1.65,0-3-1.35-3-3c0-1.65,1.35-3,3-3c1.65,0,3,1.35,3,3C53.19,46.6,51.84,47.94,50.19,47.94z
		 M50.19,43.94c-0.55,0-1,0.45-1,1s0.45,1,1,1c0.55,0,1-0.45,1-1S50.74,43.94,50.19,43.94z"/>
	<path class="st2" d="M34.19,38.94h-2v-3.97c0-1.67,1.36-3.03,3.03-3.03c0.92,0,1.78,0.41,2.36,1.14l3.39,4.24l-1.56,1.25
		l-3.39-4.24c-0.2-0.25-0.49-0.39-0.8-0.39c-0.57,0-1.03,0.46-1.03,1.03V38.94z"/>
	<path class="st2" d="M36.31,61.94c-1.72,0-3.12-1.4-3.12-3.12v-3.88h2v3.88c0,0.62,0.5,1.12,1.12,1.12c0.29,0,0.58-0.12,0.79-0.33
		l4.38-4.38l1.41,1.41l-4.38,4.38C37.94,61.61,37.13,61.94,36.31,61.94z"/>
	<rect x="37.19" y="45.94" class="st2" width="2" height="2"/>
	<rect x="33.19" y="45.94" class="st2" width="2" height="2"/>
	<rect x="29.19" y="45.94" class="st2" width="2" height="2"/>
	<rect x="25.19" y="45.94" class="st2" width="2" height="2"/>
	<rect x="21.19" y="45.94" class="st2" width="2" height="2"/>
	<rect x="39.19" y="41.94" class="st2" width="2" height="2"/>
	<rect x="35.19" y="41.94" class="st2" width="2" height="2"/>
	<rect x="31.19" y="41.94" class="st2" width="2" height="2"/>
	<rect x="27.19" y="41.94" class="st2" width="2" height="2"/>
	<rect x="23.19" y="41.94" class="st2" width="2" height="2"/>
	<rect x="39.19" y="49.94" class="st2" width="2" height="2"/>
	<rect x="35.19" y="49.94" class="st2" width="2" height="2"/>
	<rect x="31.19" y="49.94" class="st2" width="2" height="2"/>
	<rect x="27.19" y="49.94" class="st2" width="2" height="2"/>
	<rect x="23.19" y="49.94" class="st2" width="2" height="2"/>
</g>
</svg>
