<?xml version="1.0" encoding="utf-8"?>
<!-- Generator: Adobe Illustrator 25.4.0, SVG Export Plug-In . SVG Version: 6.00 Build 0)  -->
<svg version="1.1" id="_xF91C_迹_x5F_1" xmlns="http://www.w3.org/2000/svg" xmlns:xlink="http://www.w3.org/1999/xlink" x="0px"
	 y="0px" viewBox="0 0 29.81 28.08" style="enable-background:new 0 0 29.81 28.08;" xml:space="preserve">
<style type="text/css">
	.st0{fill:#FFFFFF;}
	.st1{fill:#55826B;}
</style>
<g>
	<g>
		<path d="M10.39,26.75C4.66,26.75,0,20.87,0,13.64c0-7.22,4.66-13.1,10.39-13.1s10.39,5.88,10.39,13.1
			C20.78,20.87,16.12,26.75,10.39,26.75z M10.39,2.04c-4.9,0-8.89,5.2-8.89,11.6c0,6.4,3.99,11.6,8.89,11.6
			c4.9,0,8.89-5.2,8.89-11.6C19.28,7.24,15.29,2.04,10.39,2.04z"/>
	</g>
	<g>
		<path d="M10.39,10.54c-0.41,0-0.75-0.34-0.75-0.75V7.38c0-0.41,0.34-0.75,0.75-0.75c0.41,0,0.75,0.34,0.75,0.75v2.42
			C11.14,10.21,10.8,10.54,10.39,10.54z"/>
	</g>
	<g>
		<path d="M8.89,11.06c-0.29,0-0.56-0.16-0.68-0.44L7.26,8.52c-0.17-0.38,0-0.82,0.38-0.99c0.37-0.17,0.82,0,0.99,0.38L9.57,10
			c0.17,0.38,0,0.82-0.38,0.99C9.09,11.04,8.99,11.06,8.89,11.06z"/>
	</g>
	<g>
		<path d="M7.79,12.47c-0.15,0-0.31-0.05-0.45-0.15l-1.63-1.21c-0.33-0.25-0.4-0.72-0.16-1.05C5.8,9.73,6.26,9.66,6.6,9.91
			l1.63,1.21c0.33,0.25,0.4,0.72,0.16,1.05C8.24,12.36,8.02,12.47,7.79,12.47z"/>
	</g>
	<g>
		<path d="M7.38,14.39H5.5c-0.41,0-0.75-0.34-0.75-0.75c0-0.41,0.34-0.75,0.75-0.75h1.89c0.41,0,0.75,0.34,0.75,0.75
			C8.13,14.06,7.8,14.39,7.38,14.39z"/>
	</g>
	<g>
		<path d="M6.16,17.53c-0.23,0-0.46-0.11-0.6-0.3c-0.25-0.33-0.18-0.8,0.16-1.05l1.63-1.21c0.33-0.25,0.8-0.18,1.05,0.16
			c0.25,0.33,0.18,0.8-0.16,1.05L6.6,17.38C6.47,17.48,6.31,17.53,6.16,17.53z"/>
	</g>
	<g>
		<path d="M7.94,19.82c-0.1,0-0.21-0.02-0.31-0.07c-0.38-0.17-0.55-0.61-0.38-0.99l0.94-2.09c0.17-0.38,0.62-0.54,0.99-0.38
			c0.38,0.17,0.55,0.61,0.38,0.99l-0.94,2.09C8.5,19.65,8.23,19.82,7.94,19.82z"/>
	</g>
	<g>
		<path d="M10.39,20.66c-0.41,0-0.75-0.34-0.75-0.75v-2.42c0-0.41,0.34-0.75,0.75-0.75c0.41,0,0.75,0.34,0.75,0.75v2.42
			C11.14,20.32,10.8,20.66,10.39,20.66z"/>
	</g>
	<g>
		<path d="M12.83,19.82c-0.29,0-0.56-0.16-0.68-0.44l-0.94-2.09c-0.17-0.38,0-0.82,0.38-0.99c0.38-0.17,0.82,0,0.99,0.38l0.94,2.09
			c0.17,0.38,0,0.82-0.38,0.99C13.04,19.8,12.94,19.82,12.83,19.82z"/>
	</g>
	<g>
		<path d="M14.62,17.53c-0.15,0-0.31-0.05-0.45-0.15l-1.63-1.21c-0.33-0.25-0.4-0.72-0.16-1.05c0.24-0.33,0.71-0.4,1.05-0.16
			l1.63,1.21c0.33,0.25,0.4,0.72,0.16,1.05C15.08,17.42,14.85,17.53,14.62,17.53z"/>
	</g>
	<g>
		<path d="M15.28,14.39h-1.89c-0.41,0-0.75-0.34-0.75-0.75c0-0.41,0.34-0.75,0.75-0.75h1.89c0.41,0,0.75,0.34,0.75,0.75
			C16.03,14.06,15.69,14.39,15.28,14.39z"/>
	</g>
	<g>
		<path d="M12.99,12.47c-0.23,0-0.46-0.1-0.6-0.3c-0.25-0.33-0.18-0.8,0.16-1.05l1.63-1.21c0.34-0.25,0.8-0.18,1.05,0.16
			c0.25,0.33,0.18,0.8-0.16,1.05l-1.63,1.21C13.3,12.42,13.15,12.47,12.99,12.47z"/>
	</g>
	<g>
		<path d="M11.89,11.06c-0.1,0-0.21-0.02-0.31-0.07c-0.38-0.17-0.54-0.61-0.38-0.99l0.94-2.09c0.17-0.38,0.61-0.55,0.99-0.38
			c0.38,0.17,0.54,0.61,0.38,0.99l-0.94,2.09C12.45,10.89,12.18,11.06,11.89,11.06z"/>
	</g>
	<g>
		<path d="M10.92,26.75c-0.1,0-0.19,0-0.28,0h-0.25C4.66,26.75,0,20.87,0,13.64c0-7.22,4.66-13.1,10.39-13.1h0.25
			c2.84,0,7.49,0,11.54,1.59c5.06,1.99,7.63,5.87,7.63,11.51s-2.57,9.52-7.63,11.51C18.26,26.7,13.75,26.75,10.92,26.75z
			 M10.92,2.04c-0.09,0-0.18,0-0.27,0h-0.25c-4.9,0-8.89,5.2-8.89,11.6c0,6.4,3.99,11.6,8.89,11.6h0.25c2.69,0,7.2,0,10.99-1.49
			c4.49-1.77,6.68-5.08,6.68-10.12c0-5.04-2.18-8.35-6.68-10.12C17.97,2.08,13.63,2.04,10.92,2.04z"/>
	</g>
	<g>
		<path d="M18.53,2.62c-0.13,0-0.26-0.03-0.38-0.1c-0.36-0.21-0.48-0.67-0.27-1.03l0.66-1.12c0.21-0.36,0.67-0.48,1.03-0.27
			c0.36,0.21,0.48,0.67,0.27,1.03l-0.66,1.12C19.04,2.48,18.79,2.62,18.53,2.62z"/>
	</g>
	<g>
		<path d="M24.43,25.38c-0.21,0-0.43-0.09-0.57-0.27l-0.82-0.97c-0.27-0.32-0.23-0.79,0.09-1.06c0.32-0.27,0.79-0.23,1.06,0.09
			l0.82,0.97c0.27,0.32,0.23,0.79-0.09,1.06C24.78,25.32,24.6,25.38,24.43,25.38z"/>
	</g>
	<g>
		<path d="M14.9,28.08c-0.07,0-0.13-0.01-0.2-0.03c-0.4-0.11-0.63-0.53-0.52-0.92l0.38-1.34c0.11-0.4,0.53-0.63,0.92-0.52
			c0.4,0.11,0.63,0.53,0.52,0.92l-0.37,1.34C15.53,27.87,15.23,28.08,14.9,28.08z"/>
	</g>
	<g>
		<path d="M24.02,9.33c-0.09,0-0.19-0.02-0.28-0.06c-0.38-0.16-0.57-0.6-0.41-0.98l0.41-1c0.16-0.38,0.6-0.57,0.98-0.41
			c0.38,0.16,0.57,0.6,0.41,0.98l-0.41,1C24.6,9.16,24.32,9.33,24.02,9.33z"/>
	</g>
	<g>
		<path d="M23.4,20.66c-0.19,0-0.38-0.07-0.53-0.22l-0.84-0.84c-0.29-0.29-0.29-0.77,0-1.06c0.29-0.29,0.77-0.3,1.06,0l0.84,0.84
			c0.29,0.29,0.29,0.77,0,1.06C23.79,20.59,23.59,20.66,23.4,20.66z"/>
	</g>
	<g>
		<path d="M27.23,14.39h-0.83c-0.41,0-0.75-0.34-0.75-0.75c0-0.41,0.34-0.75,0.75-0.75h0.83c0.41,0,0.75,0.34,0.75,0.75
			C27.98,14.06,27.64,14.39,27.23,14.39z"/>
	</g>
</g>
<g>
</g>
</svg>
