<?xml version="1.0" encoding="utf-8"?>
<!-- Generator: Adobe Illustrator 25.4.0, SVG Export Plug-In . SVG Version: 6.00 Build 0)  -->
<svg version="1.1" id="Layer_1" xmlns="http://www.w3.org/2000/svg" xmlns:xlink="http://www.w3.org/1999/xlink" x="0px" y="0px"
	 viewBox="0 0 57.27 61.96" style="enable-background:new 0 0 57.27 61.96;" xml:space="preserve">
<style type="text/css">
	.st0{fill:#FFFFFF;}
	.st1{fill:#4FDBC4;}
	.st2{fill:#333333;}
	.st3{fill:#343433;}
</style>
<g>
	<path class="st2" d="M35.41,61.88l-0.81-1.83c8.77-3.9,14.99-13.29,15.39-23.09H2.02c0.4,9.79,6.61,19.19,15.39,23.09l-0.81,1.83
		C6.82,57.53,0,46.88,0,35.96v-1h52v1C52,46.88,45.18,57.54,35.41,61.88z"/>
	<rect x="14" y="59.96" class="st2" width="24" height="2"/>
	<path class="st2" d="M35,36.96c-1.65,0-3-1.35-3-3c0-0.55-0.45-1-1-1c-0.55,0-1,0.45-1,1c0,1.65-1.35,3-3,3c-1.65,0-3-1.35-3-3
		c0-0.55-0.45-1-1-1c-0.55,0-1,0.45-1,1c0,1.65-1.35,3-3,3c-1.65,0-3-1.35-3-3c0-0.55-0.45-1-1-1c-0.55,0-1,0.45-1,1
		c0,1.65-1.35,3-3,3c-1.65,0-3-1.35-3-3c0-0.55-0.45-1-1-1c-0.55,0-1,0.45-1,1c0,1.65-1.35,3-3,3v-2c0.55,0,1-0.45,1-1
		c0-1.65,1.35-3,3-3c1.65,0,3,1.35,3,3c0,0.55,0.45,1,1,1c0.55,0,1-0.45,1-1c0-1.65,1.35-3,3-3c1.65,0,3,1.35,3,3c0,0.55,0.45,1,1,1
		c0.55,0,1-0.45,1-1c0-1.65,1.35-3,3-3c1.65,0,3,1.35,3,3c0,0.55,0.45,1,1,1c0.55,0,1-0.45,1-1c0-1.65,1.35-3,3-3c1.65,0,3,1.35,3,3
		c0,0.55,0.45,1,1,1V36.96z"/>
	<rect x="20" y="9.96" class="st2" width="37" height="2"/>
	<rect x="20.32" y="4.96" transform="matrix(0.9636 -0.2675 0.2675 0.9636 -0.1741 10.65)" class="st2" width="37.36" height="2"/>
	<rect x="20" y="8.96" class="st2" width="2" height="17"/>
	<rect x="23" y="6.96" class="st2" width="2" height="18"/>
	<path class="st2" d="M45,35.96h-2c0-3.86-3.14-7-7-7c-3.86,0-7,3.14-7,7h-2c0-4.96,4.04-9,9-9C40.96,26.96,45,31,45,35.96z"/>
	<path class="st2" d="M10,35.96H8c0-5.51,4.49-10,10-10v2C13.59,27.96,10,31.55,10,35.96z"/>
	<path class="st2" d="M31,30.96c-0.6,0-1.08-0.18-1.43-0.53c-0.59-0.59-0.58-1.42-0.58-2.21l0-0.26c0-0.55-0.45-1-1-1
		c-0.55,0-1,0.45-1,1c0,1.65-1.35,3-3,3c-1.65,0-3-1.35-3-3c0-0.55-0.45-1-1-1c-0.55,0-1,0.45-1,1h-2c0-1.65,1.35-3,3-3
		c1.65,0,3,1.35,3,3c0,0.55,0.45,1,1,1c0.55,0,1-0.45,1-1c0-1.65,1.35-3,3-3c1.65,0,3,1.35,3,3l0,0.27c0,0.29-0.01,0.73,0.05,0.86
		c-0.01-0.02-0.02-0.04-0.04-0.06V30.96z"/>
	<rect x="45" y="26.96" class="st2" width="2" height="9"/>
	<rect x="42" y="25.96" class="st2" width="2" height="6"/>
	<rect x="6" y="39.96" class="st2" width="11" height="2"/>
	<rect x="19" y="39.96" class="st2" width="2" height="2"/>
	<rect x="23" y="39.96" class="st2" width="2" height="2"/>
	<rect x="26" y="4.96" class="st2" width="2" height="9"/>
</g>
</svg>
